<?xml version="1.0" standalone="yes"?>

<svg version="1.1" viewBox="0.0 0.0 480.2178477690289 100.0" fill="none" stroke="none" stroke-linecap="square" stroke-miterlimit="10" xmlns="http://www.w3.org/2000/svg" xmlns:xlink="http://www.w3.org/1999/xlink"><clipPath id="p.0"><path d="m0 0l480.21783 0l0 100.0l-480.21783 0l0 -100.0z" clip-rule="nonzero"></path></clipPath><g clip-path="url(#p.0)"><path fill="#000000" fill-opacity="0.0" d="m0 0l480.21783 0l0 100.0l-480.21783 0z" fill-rule="nonzero"></path><path fill="#ffffff" d="m8.0 56.0l24.0 -48.0l64.0 0l24.0 48.0z" fill-rule="nonzero"></path><path stroke="#9CCC65" stroke-width="12.0" stroke-linejoin="round" stroke-linecap="butt" d="m8.0 56.0l24.0 -48.0l64.0 0l24.0 48.0z" fill-rule="nonzero"></path><path fill="#dcedc8" d="m96.0 56.0l24.0 -48.0l64.0 0l24.0 48.0z" fill-rule="nonzero"></path><path stroke="#9CCC65" stroke-width="12.0" stroke-linejoin="round" stroke-linecap="butt" d="m96.0 56.0l24.0 -48.0l64.0 0l24.0 48.0z" fill-rule="nonzero"></path><path fill="#dcedc8" d="m184.0 56.0l24.0 -48.0l64.0 0l24.0 48.0z" fill-rule="nonzero"></path><path stroke="#9CCC65" stroke-width="12.0" stroke-linejoin="round" stroke-linecap="butt" d="m184.0 56.0l24.0 -48.0l64.0 0l24.0 48.0z" fill-rule="nonzero"></path><path fill="#dcedc8" d="m272.0 56.0l24.0 -48.0l64.0 0l24.0 48.0z" fill-rule="nonzero"></path><path stroke="#9CCC65" stroke-width="12.0" stroke-linejoin="round" stroke-linecap="butt" d="m272.0 56.0l24.0 -48.0l64.0 0l24.0 48.0z" fill-rule="nonzero"></path><path fill="#dcedc8" d="m360.0 56.0l24.0 -48.0l64.0 0l24.0 48.0z" fill-rule="nonzero"></path><path stroke="#9CCC65" stroke-width="12.0" stroke-linejoin="round" stroke-linecap="butt" d="m360.0 56.0l24.0 -48.0l64.0 0l24.0 48.0z" fill-rule="nonzero"></path></g></svg>

